{
  "schema": "darksco.song-plan/1.0",
  "session": {
    "mode": "autonomous",
    "execute": false,
    "authorization_scope": "plan-only"
  },
  "meta": {
    "title": "Signal Beneath the Glass",
    "author": "Darksco",
    "seed": 271828,
    "intent": "Dark progressive electronica that grows from a restrained modal pulse into a bright but uneasy peak, then resolves without losing momentum.",
    "duration_bars": 32
  },
  "global": {
    "bpm": 124,
    "time_signature": [4, 4],
    "key": {
      "tonic": "D",
      "mode": "dorian",
      "pitch_classes": [2, 4, 5, 7, 9, 11, 0]
    },
    "swing": 0.08
  },
  "creative_rule": {
    "name": "fractured_common_tone",
    "description": "A 3+3+2 accent cycle fractures the 4/4 grid while pitch A remains a structural common tone across the harmonic changes.",
    "purpose": "Create forward instability without losing a recognizable tonal and rhythmic identity."
  },
  "motifs": [
    {
      "id": "m1_signal",
      "degrees": [1, 2, 3, 5],
      "midi_reference": [62, 64, 65, 69],
      "rhythm_beats": [0.0, 1.5, 3.0, 3.5],
      "transformations": ["register_shift", "rotation", "inversion", "truncation"]
    },
    {
      "id": "m2_faultline",
      "degrees": [1, 3, 4, 7],
      "midi_reference": [38, 41, 43, 48],
      "rhythm_beats": [0.0, 0.75, 1.5, 3.0],
      "transformations": ["rhythmic_displacement", "augmentation", "octave_transfer"]
    }
  ],
  "sections": [
    {
      "id": "emergence",
      "name": "01 EMERGENCE",
      "start_bar": 1,
      "bars": 8,
      "energy": 0.28,
      "tension": 0.22,
      "harmony": [
        {"bar": 1, "duration_bars": 4, "symbol": "Dm(add9)", "roman": "i(add9)", "pitches": [50, 57, 64, 65]},
        {"bar": 5, "duration_bars": 4, "symbol": "G6/9", "roman": "IV6/9", "pitches": [55, 57, 64, 71]}
      ],
      "active_roles": ["pulse", "bass", "harmony"]
    },
    {
      "id": "expansion",
      "name": "02 EXPANSION",
      "start_bar": 9,
      "bars": 8,
      "energy": 0.57,
      "tension": 0.48,
      "harmony": [
        {"bar": 9, "duration_bars": 2, "symbol": "Dm9", "roman": "i9", "pitches": [50, 53, 57, 60, 64]},
        {"bar": 11, "duration_bars": 2, "symbol": "Cmaj7/A", "roman": "VIImaj7/5", "pitches": [48, 52, 55, 59, 69]},
        {"bar": 13, "duration_bars": 2, "symbol": "G13", "roman": "IV13", "pitches": [55, 59, 62, 65, 69]},
        {"bar": 15, "duration_bars": 2, "symbol": "Am7", "roman": "v7", "pitches": [57, 60, 64, 67]}
      ],
      "active_roles": ["pulse", "bass", "harmony", "lead"]
    },
    {
      "id": "apex",
      "name": "03 FRACTURE",
      "start_bar": 17,
      "bars": 8,
      "energy": 0.92,
      "tension": 0.82,
      "harmony": [
        {"bar": 17, "duration_bars": 2, "symbol": "Bbmaj7#11/A", "roman": "bVImaj7#11/7 pedal", "pitches": [46, 50, 57, 64, 69]},
        {"bar": 19, "duration_bars": 2, "symbol": "G13", "roman": "IV13", "pitches": [43, 53, 59, 62, 69]},
        {"bar": 21, "duration_bars": 2, "symbol": "Cmaj9", "roman": "VIImaj9", "pitches": [48, 52, 55, 59, 62]},
        {"bar": 23, "duration_bars": 2, "symbol": "Asus4(b9)", "roman": "v-sus tension", "pitches": [45, 50, 58, 64]}
      ],
      "active_roles": ["pulse", "bass", "harmony", "lead"]
    },
    {
      "id": "afterimage",
      "name": "04 AFTERIMAGE",
      "start_bar": 25,
      "bars": 8,
      "energy": 0.42,
      "tension": 0.18,
      "harmony": [
        {"bar": 25, "duration_bars": 2, "symbol": "G6/9", "roman": "IV6/9", "pitches": [43, 50, 57, 59, 64]},
        {"bar": 27, "duration_bars": 2, "symbol": "Cmaj7", "roman": "VIImaj7", "pitches": [48, 52, 55, 59]},
        {"bar": 29, "duration_bars": 4, "symbol": "Dm9", "roman": "i9", "pitches": [50, 53, 57, 60, 64]}
      ],
      "active_roles": ["pulse", "bass", "harmony", "lead"]
    }
  ],
  "tracks": [
    {
      "id": "pulse",
      "name": "Darksco Pulse",
      "role": "pulse",
      "kind": "midi",
      "register": [36, 46],
      "mix": {"volume": 0.72, "pan": 0.0},
      "clips": [
        {
          "section": "emergence",
          "name": "Pulse — Emergence",
          "color": 3026478,
          "length_beats": 32,
          "loop": true,
          "notes": [
            {"pitch": 36, "start": 0.0, "duration": 0.2, "velocity": 105}, {"pitch": 42, "start": 0.0, "duration": 0.12, "velocity": 62},
            {"pitch": 42, "start": 0.75, "duration": 0.12, "velocity": 48}, {"pitch": 38, "start": 1.5, "duration": 0.2, "velocity": 91},
            {"pitch": 42, "start": 1.5, "duration": 0.12, "velocity": 68}, {"pitch": 42, "start": 2.25, "duration": 0.12, "velocity": 50},
            {"pitch": 36, "start": 3.0, "duration": 0.2, "velocity": 94}, {"pitch": 42, "start": 3.0, "duration": 0.12, "velocity": 70},
            {"pitch": 36, "start": 8.0, "duration": 0.2, "velocity": 108}, {"pitch": 42, "start": 8.0, "duration": 0.12, "velocity": 64},
            {"pitch": 42, "start": 8.75, "duration": 0.12, "velocity": 50}, {"pitch": 38, "start": 9.5, "duration": 0.2, "velocity": 94},
            {"pitch": 42, "start": 9.5, "duration": 0.12, "velocity": 70}, {"pitch": 42, "start": 10.25, "duration": 0.12, "velocity": 53},
            {"pitch": 36, "start": 11.0, "duration": 0.2, "velocity": 98}, {"pitch": 46, "start": 11.5, "duration": 0.18, "velocity": 75},
            {"pitch": 36, "start": 16.0, "duration": 0.2, "velocity": 106}, {"pitch": 42, "start": 16.0, "duration": 0.12, "velocity": 63},
            {"pitch": 38, "start": 17.5, "duration": 0.2, "velocity": 92}, {"pitch": 42, "start": 18.25, "duration": 0.12, "velocity": 49},
            {"pitch": 36, "start": 19.0, "duration": 0.2, "velocity": 96}, {"pitch": 42, "start": 19.5, "duration": 0.12, "velocity": 68},
            {"pitch": 36, "start": 24.0, "duration": 0.2, "velocity": 109}, {"pitch": 42, "start": 24.75, "duration": 0.12, "velocity": 51},
            {"pitch": 38, "start": 25.5, "duration": 0.2, "velocity": 96}, {"pitch": 42, "start": 26.25, "duration": 0.12, "velocity": 55},
            {"pitch": 36, "start": 27.0, "duration": 0.2, "velocity": 101}, {"pitch": 46, "start": 31.5, "duration": 0.18, "velocity": 83}
          ]
        },
        {
          "section": "expansion",
          "name": "Pulse — Expansion",
          "color": 4235519,
          "length_beats": 32,
          "loop": true,
          "notes": [
            {"pitch": 36, "start": 0.0, "duration": 0.2, "velocity": 112}, {"pitch": 42, "start": 0.0, "duration": 0.12, "velocity": 72},
            {"pitch": 42, "start": 0.75, "duration": 0.12, "velocity": 55}, {"pitch": 38, "start": 1.5, "duration": 0.2, "velocity": 100},
            {"pitch": 36, "start": 2.0, "duration": 0.2, "velocity": 93}, {"pitch": 42, "start": 2.25, "duration": 0.12, "velocity": 59},
            {"pitch": 36, "start": 3.0, "duration": 0.2, "velocity": 104}, {"pitch": 46, "start": 3.5, "duration": 0.18, "velocity": 79},
            {"pitch": 36, "start": 8.0, "duration": 0.2, "velocity": 114}, {"pitch": 42, "start": 8.75, "duration": 0.12, "velocity": 57},
            {"pitch": 38, "start": 9.5, "duration": 0.2, "velocity": 102}, {"pitch": 36, "start": 10.0, "duration": 0.2, "velocity": 95},
            {"pitch": 42, "start": 10.25, "duration": 0.12, "velocity": 62}, {"pitch": 36, "start": 11.0, "duration": 0.2, "velocity": 107},
            {"pitch": 36, "start": 16.0, "duration": 0.2, "velocity": 115}, {"pitch": 42, "start": 16.0, "duration": 0.12, "velocity": 74},
            {"pitch": 38, "start": 17.5, "duration": 0.2, "velocity": 104}, {"pitch": 36, "start": 18.0, "duration": 0.2, "velocity": 96},
            {"pitch": 42, "start": 18.75, "duration": 0.12, "velocity": 61}, {"pitch": 36, "start": 19.0, "duration": 0.2, "velocity": 108},
            {"pitch": 36, "start": 24.0, "duration": 0.2, "velocity": 116}, {"pitch": 42, "start": 24.75, "duration": 0.12, "velocity": 58},
            {"pitch": 38, "start": 25.5, "duration": 0.2, "velocity": 105}, {"pitch": 36, "start": 26.0, "duration": 0.2, "velocity": 98},
            {"pitch": 42, "start": 26.25, "duration": 0.12, "velocity": 63}, {"pitch": 46, "start": 31.5, "duration": 0.18, "velocity": 88}
          ]
        },
        {
          "section": "apex",
          "name": "Pulse — Fracture",
          "color": 11337728,
          "length_beats": 32,
          "loop": true,
          "notes": [
            {"pitch": 36, "start": 0.0, "duration": 0.2, "velocity": 120}, {"pitch": 42, "start": 0.0, "duration": 0.12, "velocity": 82},
            {"pitch": 42, "start": 0.75, "duration": 0.12, "velocity": 65}, {"pitch": 38, "start": 1.5, "duration": 0.2, "velocity": 110},
            {"pitch": 36, "start": 2.0, "duration": 0.2, "velocity": 103}, {"pitch": 42, "start": 2.25, "duration": 0.12, "velocity": 68},
            {"pitch": 36, "start": 3.0, "duration": 0.2, "velocity": 114}, {"pitch": 46, "start": 3.5, "duration": 0.18, "velocity": 94},
            {"pitch": 36, "start": 8.0, "duration": 0.2, "velocity": 121}, {"pitch": 42, "start": 8.75, "duration": 0.12, "velocity": 67},
            {"pitch": 38, "start": 9.5, "duration": 0.2, "velocity": 112}, {"pitch": 36, "start": 10.0, "duration": 0.2, "velocity": 105},
            {"pitch": 42, "start": 10.25, "duration": 0.12, "velocity": 70}, {"pitch": 36, "start": 11.0, "duration": 0.2, "velocity": 116},
            {"pitch": 36, "start": 16.0, "duration": 0.2, "velocity": 122}, {"pitch": 42, "start": 16.0, "duration": 0.12, "velocity": 84},
            {"pitch": 38, "start": 17.5, "duration": 0.2, "velocity": 113}, {"pitch": 36, "start": 18.0, "duration": 0.2, "velocity": 106},
            {"pitch": 42, "start": 18.75, "duration": 0.12, "velocity": 71}, {"pitch": 36, "start": 19.0, "duration": 0.2, "velocity": 117},
            {"pitch": 36, "start": 24.0, "duration": 0.2, "velocity": 123}, {"pitch": 42, "start": 24.75, "duration": 0.12, "velocity": 69},
            {"pitch": 38, "start": 25.5, "duration": 0.2, "velocity": 115}, {"pitch": 36, "start": 26.0, "duration": 0.2, "velocity": 108},
            {"pitch": 42, "start": 26.25, "duration": 0.12, "velocity": 73}, {"pitch": 46, "start": 31.5, "duration": 0.18, "velocity": 102}
          ]
        },
        {
          "section": "afterimage",
          "name": "Pulse — Afterimage",
          "color": 6184542,
          "length_beats": 32,
          "loop": true,
          "notes": [
            {"pitch": 36, "start": 0.0, "duration": 0.2, "velocity": 108}, {"pitch": 42, "start": 0.0, "duration": 0.12, "velocity": 65},
            {"pitch": 38, "start": 1.5, "duration": 0.2, "velocity": 94}, {"pitch": 42, "start": 2.25, "duration": 0.12, "velocity": 52},
            {"pitch": 36, "start": 3.0, "duration": 0.2, "velocity": 99}, {"pitch": 36, "start": 8.0, "duration": 0.2, "velocity": 106},
            {"pitch": 38, "start": 9.5, "duration": 0.2, "velocity": 92}, {"pitch": 42, "start": 10.25, "duration": 0.12, "velocity": 50},
            {"pitch": 36, "start": 11.0, "duration": 0.2, "velocity": 97}, {"pitch": 36, "start": 16.0, "duration": 0.2, "velocity": 104},
            {"pitch": 38, "start": 17.5, "duration": 0.2, "velocity": 90}, {"pitch": 42, "start": 18.25, "duration": 0.12, "velocity": 48},
            {"pitch": 36, "start": 19.0, "duration": 0.2, "velocity": 95}, {"pitch": 36, "start": 24.0, "duration": 0.2, "velocity": 102},
            {"pitch": 38, "start": 25.5, "duration": 0.2, "velocity": 88}, {"pitch": 42, "start": 26.25, "duration": 0.12, "velocity": 46},
            {"pitch": 36, "start": 27.0, "duration": 0.2, "velocity": 93}, {"pitch": 46, "start": 31.5, "duration": 0.18, "velocity": 70}
          ]
        }
      ]
    },
    {
      "id": "bass",
      "name": "Darksco Faultline Bass",
      "role": "bass",
      "kind": "midi",
      "register": [36, 50],
      "mix": {"volume": 0.7, "pan": 0.0},
      "clips": [
        {"section": "emergence", "name": "Bass — Emergence", "color": 1859910, "length_beats": 32, "loop": true, "notes": [
          {"pitch": 38, "start": 0.0, "duration": 1.25, "velocity": 96}, {"pitch": 41, "start": 3.0, "duration": 0.5, "velocity": 82},
          {"pitch": 38, "start": 8.0, "duration": 1.0, "velocity": 98}, {"pitch": 43, "start": 11.0, "duration": 0.75, "velocity": 87},
          {"pitch": 43, "start": 16.0, "duration": 1.25, "velocity": 100}, {"pitch": 45, "start": 19.0, "duration": 0.5, "velocity": 84},
          {"pitch": 38, "start": 24.0, "duration": 1.0, "velocity": 101}, {"pitch": 48, "start": 27.0, "duration": 0.5, "velocity": 89},
          {"pitch": 45, "start": 30.0, "duration": 1.5, "velocity": 78}
        ]},
        {"section": "expansion", "name": "Bass — Expansion", "color": 2855093, "length_beats": 32, "loop": true, "notes": [
          {"pitch": 38, "start": 0.0, "duration": 0.75, "velocity": 108}, {"pitch": 41, "start": 0.75, "duration": 0.5, "velocity": 91}, {"pitch": 43, "start": 1.5, "duration": 0.75, "velocity": 98}, {"pitch": 45, "start": 3.0, "duration": 0.75, "velocity": 102},
          {"pitch": 48, "start": 8.0, "duration": 0.75, "velocity": 106}, {"pitch": 45, "start": 9.5, "duration": 0.5, "velocity": 90}, {"pitch": 43, "start": 11.0, "duration": 0.75, "velocity": 100},
          {"pitch": 43, "start": 16.0, "duration": 0.75, "velocity": 110}, {"pitch": 45, "start": 17.5, "duration": 0.5, "velocity": 94}, {"pitch": 47, "start": 19.0, "duration": 0.75, "velocity": 103},
          {"pitch": 45, "start": 24.0, "duration": 0.75, "velocity": 107}, {"pitch": 48, "start": 25.5, "duration": 0.5, "velocity": 92}, {"pitch": 38, "start": 27.0, "duration": 1.5, "velocity": 111}, {"pitch": 45, "start": 30.0, "duration": 1.5, "velocity": 86}
        ]},
        {"section": "apex", "name": "Bass — Fracture", "color": 10824234, "length_beats": 32, "loop": true, "notes": [
          {"pitch": 46, "start": 0.0, "duration": 0.5, "velocity": 116}, {"pitch": 45, "start": 0.75, "duration": 0.5, "velocity": 103}, {"pitch": 38, "start": 1.5, "duration": 0.75, "velocity": 112}, {"pitch": 45, "start": 3.0, "duration": 0.75, "velocity": 109},
          {"pitch": 43, "start": 8.0, "duration": 0.5, "velocity": 118}, {"pitch": 47, "start": 8.75, "duration": 0.5, "velocity": 105}, {"pitch": 45, "start": 9.5, "duration": 0.75, "velocity": 114}, {"pitch": 38, "start": 11.0, "duration": 0.75, "velocity": 110},
          {"pitch": 48, "start": 16.0, "duration": 0.5, "velocity": 119}, {"pitch": 45, "start": 16.75, "duration": 0.5, "velocity": 106}, {"pitch": 43, "start": 17.5, "duration": 0.75, "velocity": 115}, {"pitch": 38, "start": 19.0, "duration": 0.75, "velocity": 111},
          {"pitch": 45, "start": 24.0, "duration": 0.5, "velocity": 120}, {"pitch": 46, "start": 24.75, "duration": 0.5, "velocity": 107}, {"pitch": 43, "start": 25.5, "duration": 0.75, "velocity": 116}, {"pitch": 38, "start": 27.0, "duration": 2.5, "velocity": 122}
        ]},
        {"section": "afterimage", "name": "Bass — Afterimage", "color": 5149074, "length_beats": 32, "loop": true, "notes": [
          {"pitch": 43, "start": 0.0, "duration": 1.5, "velocity": 101}, {"pitch": 45, "start": 3.0, "duration": 0.75, "velocity": 86},
          {"pitch": 48, "start": 8.0, "duration": 1.5, "velocity": 99}, {"pitch": 45, "start": 11.0, "duration": 0.75, "velocity": 84},
          {"pitch": 38, "start": 16.0, "duration": 2.0, "velocity": 104}, {"pitch": 41, "start": 19.0, "duration": 0.75, "velocity": 88},
          {"pitch": 38, "start": 24.0, "duration": 3.0, "velocity": 98}, {"pitch": 45, "start": 27.0, "duration": 0.75, "velocity": 82}, {"pitch": 38, "start": 30.0, "duration": 1.75, "velocity": 92}
        ]}
      ]
    },
    {
      "id": "harmony",
      "name": "Darksco Glass Chords",
      "role": "harmony",
      "kind": "midi",
      "register": [48, 81],
      "mix": {"volume": 0.62, "pan": -0.12},
      "clips": [
        {"section": "emergence", "name": "Harmony — Emergence", "color": 4819838, "length_beats": 32, "loop": true, "notes": [
          {"pitch": 50, "start": 0.0, "duration": 7.5, "velocity": 70}, {"pitch": 57, "start": 0.0, "duration": 7.5, "velocity": 65}, {"pitch": 64, "start": 0.0, "duration": 7.5, "velocity": 58}, {"pitch": 65, "start": 0.0, "duration": 7.5, "velocity": 62},
          {"pitch": 55, "start": 16.0, "duration": 7.5, "velocity": 72}, {"pitch": 57, "start": 16.0, "duration": 7.5, "velocity": 64}, {"pitch": 64, "start": 16.0, "duration": 7.5, "velocity": 60}, {"pitch": 71, "start": 16.0, "duration": 7.5, "velocity": 56}
        ]},
        {"section": "expansion", "name": "Harmony — Expansion", "color": 5931190, "length_beats": 32, "loop": true, "notes": [
          {"pitch": 50, "start": 0.0, "duration": 7.5, "velocity": 78}, {"pitch": 57, "start": 0.0, "duration": 7.5, "velocity": 72}, {"pitch": 60, "start": 0.0, "duration": 7.5, "velocity": 66}, {"pitch": 64, "start": 0.0, "duration": 7.5, "velocity": 70},
          {"pitch": 48, "start": 8.0, "duration": 7.5, "velocity": 76}, {"pitch": 55, "start": 8.0, "duration": 7.5, "velocity": 69}, {"pitch": 59, "start": 8.0, "duration": 7.5, "velocity": 65}, {"pitch": 69, "start": 8.0, "duration": 7.5, "velocity": 68},
          {"pitch": 55, "start": 16.0, "duration": 7.5, "velocity": 80}, {"pitch": 59, "start": 16.0, "duration": 7.5, "velocity": 73}, {"pitch": 65, "start": 16.0, "duration": 7.5, "velocity": 67}, {"pitch": 69, "start": 16.0, "duration": 7.5, "velocity": 71},
          {"pitch": 57, "start": 24.0, "duration": 7.5, "velocity": 77}, {"pitch": 60, "start": 24.0, "duration": 7.5, "velocity": 70}, {"pitch": 64, "start": 24.0, "duration": 7.5, "velocity": 66}, {"pitch": 67, "start": 24.0, "duration": 7.5, "velocity": 69}
        ]},
        {"section": "apex", "name": "Harmony — Fracture", "color": 13403955, "length_beats": 32, "loop": true, "notes": [
          {"pitch": 58, "start": 0.0, "duration": 7.5, "velocity": 88}, {"pitch": 62, "start": 0.0, "duration": 7.5, "velocity": 81}, {"pitch": 64, "start": 0.0, "duration": 7.5, "velocity": 76}, {"pitch": 69, "start": 0.0, "duration": 7.5, "velocity": 84},
          {"pitch": 55, "start": 8.0, "duration": 7.5, "velocity": 90}, {"pitch": 59, "start": 8.0, "duration": 7.5, "velocity": 83}, {"pitch": 65, "start": 8.0, "duration": 7.5, "velocity": 78}, {"pitch": 69, "start": 8.0, "duration": 7.5, "velocity": 86},
          {"pitch": 60, "start": 16.0, "duration": 7.5, "velocity": 89}, {"pitch": 64, "start": 16.0, "duration": 7.5, "velocity": 82}, {"pitch": 67, "start": 16.0, "duration": 7.5, "velocity": 77}, {"pitch": 71, "start": 16.0, "duration": 7.5, "velocity": 85},
          {"pitch": 57, "start": 24.0, "duration": 7.5, "velocity": 92}, {"pitch": 62, "start": 24.0, "duration": 7.5, "velocity": 84}, {"pitch": 64, "start": 24.0, "duration": 7.5, "velocity": 80}, {"pitch": 70, "start": 24.0, "duration": 7.5, "velocity": 88}
        ]},
        {"section": "afterimage", "name": "Harmony — Afterimage", "color": 7444662, "length_beats": 32, "loop": true, "notes": [
          {"pitch": 55, "start": 0.0, "duration": 7.5, "velocity": 71}, {"pitch": 59, "start": 0.0, "duration": 7.5, "velocity": 64}, {"pitch": 64, "start": 0.0, "duration": 7.5, "velocity": 60}, {"pitch": 69, "start": 0.0, "duration": 7.5, "velocity": 67},
          {"pitch": 60, "start": 8.0, "duration": 7.5, "velocity": 69}, {"pitch": 64, "start": 8.0, "duration": 7.5, "velocity": 62}, {"pitch": 67, "start": 8.0, "duration": 7.5, "velocity": 58}, {"pitch": 71, "start": 8.0, "duration": 7.5, "velocity": 65},
          {"pitch": 50, "start": 16.0, "duration": 15.5, "velocity": 74}, {"pitch": 57, "start": 16.0, "duration": 15.5, "velocity": 67}, {"pitch": 60, "start": 16.0, "duration": 15.5, "velocity": 61}, {"pitch": 64, "start": 16.0, "duration": 15.5, "velocity": 69}
        ]}
      ]
    },
    {
      "id": "lead",
      "name": "Darksco Signal Lead",
      "role": "lead",
      "kind": "midi",
      "register": [62, 86],
      "mix": {"volume": 0.6, "pan": 0.14},
      "clips": [
        {"section": "emergence", "name": "Lead — Silence", "color": 3684408, "length_beats": 32, "loop": true, "notes": []},
        {"section": "expansion", "name": "Lead — Signal", "color": 5410516, "length_beats": 32, "loop": true, "notes": [
          {"pitch": 62, "start": 0.0, "duration": 1.0, "velocity": 88}, {"pitch": 64, "start": 1.5, "duration": 0.75, "velocity": 80}, {"pitch": 65, "start": 3.0, "duration": 0.35, "velocity": 92}, {"pitch": 69, "start": 3.5, "duration": 1.5, "velocity": 96},
          {"pitch": 64, "start": 8.0, "duration": 0.75, "velocity": 84}, {"pitch": 65, "start": 9.5, "duration": 0.75, "velocity": 82}, {"pitch": 69, "start": 11.0, "duration": 0.5, "velocity": 94}, {"pitch": 72, "start": 11.5, "duration": 1.25, "velocity": 90},
          {"pitch": 69, "start": 16.0, "duration": 1.0, "velocity": 91}, {"pitch": 67, "start": 17.5, "duration": 0.75, "velocity": 83}, {"pitch": 65, "start": 19.0, "duration": 0.35, "velocity": 95}, {"pitch": 64, "start": 19.5, "duration": 1.5, "velocity": 87},
          {"pitch": 62, "start": 24.0, "duration": 0.75, "velocity": 86}, {"pitch": 65, "start": 25.5, "duration": 0.75, "velocity": 90}, {"pitch": 69, "start": 27.0, "duration": 0.5, "velocity": 98}, {"pitch": 64, "start": 27.5, "duration": 2.0, "velocity": 82}
        ]},
        {"section": "apex", "name": "Lead — Fractured Signal", "color": 14505058, "length_beats": 32, "loop": true, "notes": [
          {"pitch": 69, "start": 0.0, "duration": 0.75, "velocity": 108}, {"pitch": 70, "start": 0.75, "duration": 0.5, "velocity": 98}, {"pitch": 74, "start": 1.5, "duration": 0.75, "velocity": 112}, {"pitch": 76, "start": 3.0, "duration": 1.0, "velocity": 105},
          {"pitch": 74, "start": 8.0, "duration": 0.5, "velocity": 110}, {"pitch": 71, "start": 8.75, "duration": 0.5, "velocity": 101}, {"pitch": 69, "start": 9.5, "duration": 0.75, "velocity": 114}, {"pitch": 65, "start": 11.0, "duration": 1.0, "velocity": 103},
          {"pitch": 76, "start": 16.0, "duration": 0.75, "velocity": 113}, {"pitch": 74, "start": 16.75, "duration": 0.5, "velocity": 102}, {"pitch": 71, "start": 17.5, "duration": 0.75, "velocity": 116}, {"pitch": 69, "start": 19.0, "duration": 1.0, "velocity": 106},
          {"pitch": 69, "start": 24.0, "duration": 0.5, "velocity": 115}, {"pitch": 70, "start": 24.75, "duration": 0.5, "velocity": 104}, {"pitch": 74, "start": 25.5, "duration": 0.75, "velocity": 118}, {"pitch": 76, "start": 27.0, "duration": 0.5, "velocity": 109}, {"pitch": 74, "start": 27.75, "duration": 2.0, "velocity": 111}
        ]},
        {"section": "afterimage", "name": "Lead — Afterimage", "color": 8567941, "length_beats": 32, "loop": true, "notes": [
          {"pitch": 69, "start": 0.0, "duration": 1.5, "velocity": 88}, {"pitch": 65, "start": 3.0, "duration": 0.75, "velocity": 79},
          {"pitch": 64, "start": 8.0, "duration": 1.5, "velocity": 84}, {"pitch": 62, "start": 11.0, "duration": 0.75, "velocity": 76},
          {"pitch": 65, "start": 16.0, "duration": 1.0, "velocity": 82}, {"pitch": 64, "start": 17.5, "duration": 0.75, "velocity": 74}, {"pitch": 62, "start": 19.0, "duration": 2.0, "velocity": 86},
          {"pitch": 69, "start": 24.0, "duration": 0.75, "velocity": 80}, {"pitch": 65, "start": 25.5, "duration": 0.75, "velocity": 73}, {"pitch": 62, "start": 27.0, "duration": 4.5, "velocity": 83}
        ]}
      ]
    }
  ],
  "mix": {
    "headroom_db": -6.0,
    "max_normalized_volume": 0.85,
    "notes": "Conceptual balance only; bridge v0.4 cannot inspect actual peak level or loudness."
  },
  "review": {
    "requires_approval": true,
    "warnings": [
      "The Bb notes in the FRACTURE scene are intentional modal-exchange tensions outside D Dorian and resolve by step or common tone.",
      "Track 1 uses General MIDI drum pitches, but bridge v0.4 cannot load or verify a Drum Rack; audible drum mapping depends on the device chosen in Live.",
      "Bridge v0.4 cannot load instruments or presets, automate parameters, apply swing, or place clips in Arrangement View.",
      "The empty lead clip in EMERGENCE is intentional negative space; verify whether Live accepts creating a clip with an empty notes array."
    ],
    "destructive_commands": [],
    "playback_requested": false
  }
}
