{"type":"set_tempo","bpm":124}
{"type":"set_time_signature","numerator":4,"denominator":4}
{"type":"create_scene","name":"01 EMERGENCE","index":0}
{"type":"create_scene","name":"02 EXPANSION","index":1}
{"type":"create_scene","name":"03 FRACTURE","index":2}
{"type":"create_scene","name":"04 AFTERIMAGE","index":3}
{"type":"create_midi_track","name":"Darksco Pulse","index":0}
{"type":"create_midi_clip","track":0,"clip":0,"bar":1,"beats":32,"notes":[{"pitch":36,"start":0.0,"duration":0.2,"velocity":105},{"pitch":42,"start":0.0,"duration":0.12,"velocity":62},{"pitch":42,"start":0.75,"duration":0.12,"velocity":48},{"pitch":38,"start":1.5,"duration":0.2,"velocity":91},{"pitch":42,"start":1.5,"duration":0.12,"velocity":68},{"pitch":42,"start":2.25,"duration":0.12,"velocity":50},{"pitch":36,"start":3.0,"duration":0.2,"velocity":94},{"pitch":42,"start":3.0,"duration":0.12,"velocity":70},{"pitch":36,"start":8.0,"duration":0.2,"velocity":108},{"pitch":42,"start":8.0,"duration":0.12,"velocity":64},{"pitch":42,"start":8.75,"duration":0.12,"velocity":50},{"pitch":38,"start":9.5,"duration":0.2,"velocity":94},{"pitch":42,"start":9.5,"duration":0.12,"velocity":70},{"pitch":42,"start":10.25,"duration":0.12,"velocity":53},{"pitch":36,"start":11.0,"duration":0.2,"velocity":98},{"pitch":46,"start":11.5,"duration":0.18,"velocity":75},{"pitch":36,"start":16.0,"duration":0.2,"velocity":106},{"pitch":42,"start":16.0,"duration":0.12,"velocity":63},{"pitch":38,"start":17.5,"duration":0.2,"velocity":92},{"pitch":42,"start":18.25,"duration":0.12,"velocity":49},{"pitch":36,"start":19.0,"duration":0.2,"velocity":96},{"pitch":42,"start":19.5,"duration":0.12,"velocity":68},{"pitch":36,"start":24.0,"duration":0.2,"velocity":109},{"pitch":42,"start":24.75,"duration":0.12,"velocity":51},{"pitch":38,"start":25.5,"duration":0.2,"velocity":96},{"pitch":42,"start":26.25,"duration":0.12,"velocity":55},{"pitch":36,"start":27.0,"duration":0.2,"velocity":101},{"pitch":46,"start":31.5,"duration":0.18,"velocity":83}]}
{"type":"set_clip_name","track":0,"clip":0,"name":"Pulse \u2014 Emergence"}
{"type":"set_clip_color","track":0,"clip":0,"color":3026478}
{"type":"set_clip_loop","track":0,"clip":0,"start":0,"length":32,"enabled":true}
{"type":"create_midi_clip","track":0,"clip":1,"bar":1,"beats":32,"notes":[{"pitch":36,"start":0.0,"duration":0.2,"velocity":112},{"pitch":42,"start":0.0,"duration":0.12,"velocity":72},{"pitch":42,"start":0.75,"duration":0.12,"velocity":55},{"pitch":38,"start":1.5,"duration":0.2,"velocity":100},{"pitch":36,"start":2.0,"duration":0.2,"velocity":93},{"pitch":42,"start":2.25,"duration":0.12,"velocity":59},{"pitch":36,"start":3.0,"duration":0.2,"velocity":104},{"pitch":46,"start":3.5,"duration":0.18,"velocity":79},{"pitch":36,"start":8.0,"duration":0.2,"velocity":114},{"pitch":42,"start":8.75,"duration":0.12,"velocity":57},{"pitch":38,"start":9.5,"duration":0.2,"velocity":102},{"pitch":36,"start":10.0,"duration":0.2,"velocity":95},{"pitch":42,"start":10.25,"duration":0.12,"velocity":62},{"pitch":36,"start":11.0,"duration":0.2,"velocity":107},{"pitch":36,"start":16.0,"duration":0.2,"velocity":115},{"pitch":42,"start":16.0,"duration":0.12,"velocity":74},{"pitch":38,"start":17.5,"duration":0.2,"velocity":104},{"pitch":36,"start":18.0,"duration":0.2,"velocity":96},{"pitch":42,"start":18.75,"duration":0.12,"velocity":61},{"pitch":36,"start":19.0,"duration":0.2,"velocity":108},{"pitch":36,"start":24.0,"duration":0.2,"velocity":116},{"pitch":42,"start":24.75,"duration":0.12,"velocity":58},{"pitch":38,"start":25.5,"duration":0.2,"velocity":105},{"pitch":36,"start":26.0,"duration":0.2,"velocity":98},{"pitch":42,"start":26.25,"duration":0.12,"velocity":63},{"pitch":46,"start":31.5,"duration":0.18,"velocity":88}]}
{"type":"set_clip_name","track":0,"clip":1,"name":"Pulse \u2014 Expansion"}
{"type":"set_clip_color","track":0,"clip":1,"color":4235519}
{"type":"set_clip_loop","track":0,"clip":1,"start":0,"length":32,"enabled":true}
{"type":"create_midi_clip","track":0,"clip":2,"bar":1,"beats":32,"notes":[{"pitch":36,"start":0.0,"duration":0.2,"velocity":120},{"pitch":42,"start":0.0,"duration":0.12,"velocity":82},{"pitch":42,"start":0.75,"duration":0.12,"velocity":65},{"pitch":38,"start":1.5,"duration":0.2,"velocity":110},{"pitch":36,"start":2.0,"duration":0.2,"velocity":103},{"pitch":42,"start":2.25,"duration":0.12,"velocity":68},{"pitch":36,"start":3.0,"duration":0.2,"velocity":114},{"pitch":46,"start":3.5,"duration":0.18,"velocity":94},{"pitch":36,"start":8.0,"duration":0.2,"velocity":121},{"pitch":42,"start":8.75,"duration":0.12,"velocity":67},{"pitch":38,"start":9.5,"duration":0.2,"velocity":112},{"pitch":36,"start":10.0,"duration":0.2,"velocity":105},{"pitch":42,"start":10.25,"duration":0.12,"velocity":70},{"pitch":36,"start":11.0,"duration":0.2,"velocity":116},{"pitch":36,"start":16.0,"duration":0.2,"velocity":122},{"pitch":42,"start":16.0,"duration":0.12,"velocity":84},{"pitch":38,"start":17.5,"duration":0.2,"velocity":113},{"pitch":36,"start":18.0,"duration":0.2,"velocity":106},{"pitch":42,"start":18.75,"duration":0.12,"velocity":71},{"pitch":36,"start":19.0,"duration":0.2,"velocity":117},{"pitch":36,"start":24.0,"duration":0.2,"velocity":123},{"pitch":42,"start":24.75,"duration":0.12,"velocity":69},{"pitch":38,"start":25.5,"duration":0.2,"velocity":115},{"pitch":36,"start":26.0,"duration":0.2,"velocity":108},{"pitch":42,"start":26.25,"duration":0.12,"velocity":73},{"pitch":46,"start":31.5,"duration":0.18,"velocity":102}]}
{"type":"set_clip_name","track":0,"clip":2,"name":"Pulse \u2014 Fracture"}
{"type":"set_clip_color","track":0,"clip":2,"color":11337728}
{"type":"set_clip_loop","track":0,"clip":2,"start":0,"length":32,"enabled":true}
{"type":"create_midi_clip","track":0,"clip":3,"bar":1,"beats":32,"notes":[{"pitch":36,"start":0.0,"duration":0.2,"velocity":108},{"pitch":42,"start":0.0,"duration":0.12,"velocity":65},{"pitch":38,"start":1.5,"duration":0.2,"velocity":94},{"pitch":42,"start":2.25,"duration":0.12,"velocity":52},{"pitch":36,"start":3.0,"duration":0.2,"velocity":99},{"pitch":36,"start":8.0,"duration":0.2,"velocity":106},{"pitch":38,"start":9.5,"duration":0.2,"velocity":92},{"pitch":42,"start":10.25,"duration":0.12,"velocity":50},{"pitch":36,"start":11.0,"duration":0.2,"velocity":97},{"pitch":36,"start":16.0,"duration":0.2,"velocity":104},{"pitch":38,"start":17.5,"duration":0.2,"velocity":90},{"pitch":42,"start":18.25,"duration":0.12,"velocity":48},{"pitch":36,"start":19.0,"duration":0.2,"velocity":95},{"pitch":36,"start":24.0,"duration":0.2,"velocity":102},{"pitch":38,"start":25.5,"duration":0.2,"velocity":88},{"pitch":42,"start":26.25,"duration":0.12,"velocity":46},{"pitch":36,"start":27.0,"duration":0.2,"velocity":93},{"pitch":46,"start":31.5,"duration":0.18,"velocity":70}]}
{"type":"set_clip_name","track":0,"clip":3,"name":"Pulse \u2014 Afterimage"}
{"type":"set_clip_color","track":0,"clip":3,"color":6184542}
{"type":"set_clip_loop","track":0,"clip":3,"start":0,"length":32,"enabled":true}
{"type":"create_midi_track","name":"Darksco Faultline Bass","index":1}
{"type":"create_midi_clip","track":1,"clip":0,"bar":1,"beats":32,"notes":[{"pitch":38,"start":0.0,"duration":1.25,"velocity":96},{"pitch":41,"start":3.0,"duration":0.5,"velocity":82},{"pitch":38,"start":8.0,"duration":1.0,"velocity":98},{"pitch":43,"start":11.0,"duration":0.75,"velocity":87},{"pitch":43,"start":16.0,"duration":1.25,"velocity":100},{"pitch":45,"start":19.0,"duration":0.5,"velocity":84},{"pitch":38,"start":24.0,"duration":1.0,"velocity":101},{"pitch":48,"start":27.0,"duration":0.5,"velocity":89},{"pitch":45,"start":30.0,"duration":1.5,"velocity":78}]}
{"type":"set_clip_name","track":1,"clip":0,"name":"Bass \u2014 Emergence"}
{"type":"set_clip_color","track":1,"clip":0,"color":1859910}
{"type":"set_clip_loop","track":1,"clip":0,"start":0,"length":32,"enabled":true}
{"type":"create_midi_clip","track":1,"clip":1,"bar":1,"beats":32,"notes":[{"pitch":38,"start":0.0,"duration":0.75,"velocity":108},{"pitch":41,"start":0.75,"duration":0.5,"velocity":91},{"pitch":43,"start":1.5,"duration":0.75,"velocity":98},{"pitch":45,"start":3.0,"duration":0.75,"velocity":102},{"pitch":48,"start":8.0,"duration":0.75,"velocity":106},{"pitch":45,"start":9.5,"duration":0.5,"velocity":90},{"pitch":43,"start":11.0,"duration":0.75,"velocity":100},{"pitch":43,"start":16.0,"duration":0.75,"velocity":110},{"pitch":45,"start":17.5,"duration":0.5,"velocity":94},{"pitch":47,"start":19.0,"duration":0.75,"velocity":103},{"pitch":45,"start":24.0,"duration":0.75,"velocity":107},{"pitch":48,"start":25.5,"duration":0.5,"velocity":92},{"pitch":38,"start":27.0,"duration":1.5,"velocity":111},{"pitch":45,"start":30.0,"duration":1.5,"velocity":86}]}
{"type":"set_clip_name","track":1,"clip":1,"name":"Bass \u2014 Expansion"}
{"type":"set_clip_color","track":1,"clip":1,"color":2855093}
{"type":"set_clip_loop","track":1,"clip":1,"start":0,"length":32,"enabled":true}
{"type":"create_midi_clip","track":1,"clip":2,"bar":1,"beats":32,"notes":[{"pitch":46,"start":0.0,"duration":0.5,"velocity":116},{"pitch":45,"start":0.75,"duration":0.5,"velocity":103},{"pitch":38,"start":1.5,"duration":0.75,"velocity":112},{"pitch":45,"start":3.0,"duration":0.75,"velocity":109},{"pitch":43,"start":8.0,"duration":0.5,"velocity":118},{"pitch":47,"start":8.75,"duration":0.5,"velocity":105},{"pitch":45,"start":9.5,"duration":0.75,"velocity":114},{"pitch":38,"start":11.0,"duration":0.75,"velocity":110},{"pitch":48,"start":16.0,"duration":0.5,"velocity":119},{"pitch":45,"start":16.75,"duration":0.5,"velocity":106},{"pitch":43,"start":17.5,"duration":0.75,"velocity":115},{"pitch":38,"start":19.0,"duration":0.75,"velocity":111},{"pitch":45,"start":24.0,"duration":0.5,"velocity":120},{"pitch":46,"start":24.75,"duration":0.5,"velocity":107},{"pitch":43,"start":25.5,"duration":0.75,"velocity":116},{"pitch":38,"start":27.0,"duration":2.5,"velocity":122}]}
{"type":"set_clip_name","track":1,"clip":2,"name":"Bass \u2014 Fracture"}
{"type":"set_clip_color","track":1,"clip":2,"color":10824234}
{"type":"set_clip_loop","track":1,"clip":2,"start":0,"length":32,"enabled":true}
{"type":"create_midi_clip","track":1,"clip":3,"bar":1,"beats":32,"notes":[{"pitch":43,"start":0.0,"duration":1.5,"velocity":101},{"pitch":45,"start":3.0,"duration":0.75,"velocity":86},{"pitch":48,"start":8.0,"duration":1.5,"velocity":99},{"pitch":45,"start":11.0,"duration":0.75,"velocity":84},{"pitch":38,"start":16.0,"duration":2.0,"velocity":104},{"pitch":41,"start":19.0,"duration":0.75,"velocity":88},{"pitch":38,"start":24.0,"duration":3.0,"velocity":98},{"pitch":45,"start":27.0,"duration":0.75,"velocity":82},{"pitch":38,"start":30.0,"duration":1.75,"velocity":92}]}
{"type":"set_clip_name","track":1,"clip":3,"name":"Bass \u2014 Afterimage"}
{"type":"set_clip_color","track":1,"clip":3,"color":5149074}
{"type":"set_clip_loop","track":1,"clip":3,"start":0,"length":32,"enabled":true}
{"type":"create_midi_track","name":"Darksco Glass Chords","index":2}
{"type":"create_midi_clip","track":2,"clip":0,"bar":1,"beats":32,"notes":[{"pitch":50,"start":0.0,"duration":7.5,"velocity":70},{"pitch":57,"start":0.0,"duration":7.5,"velocity":65},{"pitch":64,"start":0.0,"duration":7.5,"velocity":58},{"pitch":65,"start":0.0,"duration":7.5,"velocity":62},{"pitch":55,"start":16.0,"duration":7.5,"velocity":72},{"pitch":57,"start":16.0,"duration":7.5,"velocity":64},{"pitch":64,"start":16.0,"duration":7.5,"velocity":60},{"pitch":71,"start":16.0,"duration":7.5,"velocity":56}]}
{"type":"set_clip_name","track":2,"clip":0,"name":"Harmony \u2014 Emergence"}
{"type":"set_clip_color","track":2,"clip":0,"color":4819838}
{"type":"set_clip_loop","track":2,"clip":0,"start":0,"length":32,"enabled":true}
{"type":"create_midi_clip","track":2,"clip":1,"bar":1,"beats":32,"notes":[{"pitch":50,"start":0.0,"duration":7.5,"velocity":78},{"pitch":57,"start":0.0,"duration":7.5,"velocity":72},{"pitch":60,"start":0.0,"duration":7.5,"velocity":66},{"pitch":64,"start":0.0,"duration":7.5,"velocity":70},{"pitch":48,"start":8.0,"duration":7.5,"velocity":76},{"pitch":55,"start":8.0,"duration":7.5,"velocity":69},{"pitch":59,"start":8.0,"duration":7.5,"velocity":65},{"pitch":69,"start":8.0,"duration":7.5,"velocity":68},{"pitch":55,"start":16.0,"duration":7.5,"velocity":80},{"pitch":59,"start":16.0,"duration":7.5,"velocity":73},{"pitch":65,"start":16.0,"duration":7.5,"velocity":67},{"pitch":69,"start":16.0,"duration":7.5,"velocity":71},{"pitch":57,"start":24.0,"duration":7.5,"velocity":77},{"pitch":60,"start":24.0,"duration":7.5,"velocity":70},{"pitch":64,"start":24.0,"duration":7.5,"velocity":66},{"pitch":67,"start":24.0,"duration":7.5,"velocity":69}]}
{"type":"set_clip_name","track":2,"clip":1,"name":"Harmony \u2014 Expansion"}
{"type":"set_clip_color","track":2,"clip":1,"color":5931190}
{"type":"set_clip_loop","track":2,"clip":1,"start":0,"length":32,"enabled":true}
{"type":"create_midi_clip","track":2,"clip":2,"bar":1,"beats":32,"notes":[{"pitch":58,"start":0.0,"duration":7.5,"velocity":88},{"pitch":62,"start":0.0,"duration":7.5,"velocity":81},{"pitch":64,"start":0.0,"duration":7.5,"velocity":76},{"pitch":69,"start":0.0,"duration":7.5,"velocity":84},{"pitch":55,"start":8.0,"duration":7.5,"velocity":90},{"pitch":59,"start":8.0,"duration":7.5,"velocity":83},{"pitch":65,"start":8.0,"duration":7.5,"velocity":78},{"pitch":69,"start":8.0,"duration":7.5,"velocity":86},{"pitch":60,"start":16.0,"duration":7.5,"velocity":89},{"pitch":64,"start":16.0,"duration":7.5,"velocity":82},{"pitch":67,"start":16.0,"duration":7.5,"velocity":77},{"pitch":71,"start":16.0,"duration":7.5,"velocity":85},{"pitch":57,"start":24.0,"duration":7.5,"velocity":92},{"pitch":62,"start":24.0,"duration":7.5,"velocity":84},{"pitch":64,"start":24.0,"duration":7.5,"velocity":80},{"pitch":70,"start":24.0,"duration":7.5,"velocity":88}]}
{"type":"set_clip_name","track":2,"clip":2,"name":"Harmony \u2014 Fracture"}
{"type":"set_clip_color","track":2,"clip":2,"color":13403955}
{"type":"set_clip_loop","track":2,"clip":2,"start":0,"length":32,"enabled":true}
{"type":"create_midi_clip","track":2,"clip":3,"bar":1,"beats":32,"notes":[{"pitch":55,"start":0.0,"duration":7.5,"velocity":71},{"pitch":59,"start":0.0,"duration":7.5,"velocity":64},{"pitch":64,"start":0.0,"duration":7.5,"velocity":60},{"pitch":69,"start":0.0,"duration":7.5,"velocity":67},{"pitch":60,"start":8.0,"duration":7.5,"velocity":69},{"pitch":64,"start":8.0,"duration":7.5,"velocity":62},{"pitch":67,"start":8.0,"duration":7.5,"velocity":58},{"pitch":71,"start":8.0,"duration":7.5,"velocity":65},{"pitch":50,"start":16.0,"duration":15.5,"velocity":74},{"pitch":57,"start":16.0,"duration":15.5,"velocity":67},{"pitch":60,"start":16.0,"duration":15.5,"velocity":61},{"pitch":64,"start":16.0,"duration":15.5,"velocity":69}]}
{"type":"set_clip_name","track":2,"clip":3,"name":"Harmony \u2014 Afterimage"}
{"type":"set_clip_color","track":2,"clip":3,"color":7444662}
{"type":"set_clip_loop","track":2,"clip":3,"start":0,"length":32,"enabled":true}
{"type":"create_midi_track","name":"Darksco Signal Lead","index":3}
{"type":"create_midi_clip","track":3,"clip":0,"bar":1,"beats":32,"notes":[]}
{"type":"set_clip_name","track":3,"clip":0,"name":"Lead \u2014 Silence"}
{"type":"set_clip_color","track":3,"clip":0,"color":3684408}
{"type":"set_clip_loop","track":3,"clip":0,"start":0,"length":32,"enabled":true}
{"type":"create_midi_clip","track":3,"clip":1,"bar":1,"beats":32,"notes":[{"pitch":62,"start":0.0,"duration":1.0,"velocity":88},{"pitch":64,"start":1.5,"duration":0.75,"velocity":80},{"pitch":65,"start":3.0,"duration":0.35,"velocity":92},{"pitch":69,"start":3.5,"duration":1.5,"velocity":96},{"pitch":64,"start":8.0,"duration":0.75,"velocity":84},{"pitch":65,"start":9.5,"duration":0.75,"velocity":82},{"pitch":69,"start":11.0,"duration":0.5,"velocity":94},{"pitch":72,"start":11.5,"duration":1.25,"velocity":90},{"pitch":69,"start":16.0,"duration":1.0,"velocity":91},{"pitch":67,"start":17.5,"duration":0.75,"velocity":83},{"pitch":65,"start":19.0,"duration":0.35,"velocity":95},{"pitch":64,"start":19.5,"duration":1.5,"velocity":87},{"pitch":62,"start":24.0,"duration":0.75,"velocity":86},{"pitch":65,"start":25.5,"duration":0.75,"velocity":90},{"pitch":69,"start":27.0,"duration":0.5,"velocity":98},{"pitch":64,"start":27.5,"duration":2.0,"velocity":82}]}
{"type":"set_clip_name","track":3,"clip":1,"name":"Lead \u2014 Signal"}
{"type":"set_clip_color","track":3,"clip":1,"color":5410516}
{"type":"set_clip_loop","track":3,"clip":1,"start":0,"length":32,"enabled":true}
{"type":"create_midi_clip","track":3,"clip":2,"bar":1,"beats":32,"notes":[{"pitch":69,"start":0.0,"duration":0.75,"velocity":108},{"pitch":70,"start":0.75,"duration":0.5,"velocity":98},{"pitch":74,"start":1.5,"duration":0.75,"velocity":112},{"pitch":76,"start":3.0,"duration":1.0,"velocity":105},{"pitch":74,"start":8.0,"duration":0.5,"velocity":110},{"pitch":71,"start":8.75,"duration":0.5,"velocity":101},{"pitch":69,"start":9.5,"duration":0.75,"velocity":114},{"pitch":65,"start":11.0,"duration":1.0,"velocity":103},{"pitch":76,"start":16.0,"duration":0.75,"velocity":113},{"pitch":74,"start":16.75,"duration":0.5,"velocity":102},{"pitch":71,"start":17.5,"duration":0.75,"velocity":116},{"pitch":69,"start":19.0,"duration":1.0,"velocity":106},{"pitch":69,"start":24.0,"duration":0.5,"velocity":115},{"pitch":70,"start":24.75,"duration":0.5,"velocity":104},{"pitch":74,"start":25.5,"duration":0.75,"velocity":118},{"pitch":76,"start":27.0,"duration":0.5,"velocity":109},{"pitch":74,"start":27.75,"duration":2.0,"velocity":111}]}
{"type":"set_clip_name","track":3,"clip":2,"name":"Lead \u2014 Fractured Signal"}
{"type":"set_clip_color","track":3,"clip":2,"color":14505058}
{"type":"set_clip_loop","track":3,"clip":2,"start":0,"length":32,"enabled":true}
{"type":"create_midi_clip","track":3,"clip":3,"bar":1,"beats":32,"notes":[{"pitch":69,"start":0.0,"duration":1.5,"velocity":88},{"pitch":65,"start":3.0,"duration":0.75,"velocity":79},{"pitch":64,"start":8.0,"duration":1.5,"velocity":84},{"pitch":62,"start":11.0,"duration":0.75,"velocity":76},{"pitch":65,"start":16.0,"duration":1.0,"velocity":82},{"pitch":64,"start":17.5,"duration":0.75,"velocity":74},{"pitch":62,"start":19.0,"duration":2.0,"velocity":86},{"pitch":69,"start":24.0,"duration":0.75,"velocity":80},{"pitch":65,"start":25.5,"duration":0.75,"velocity":73},{"pitch":62,"start":27.0,"duration":4.5,"velocity":83}]}
{"type":"set_clip_name","track":3,"clip":3,"name":"Lead \u2014 Afterimage"}
{"type":"set_clip_color","track":3,"clip":3,"color":8567941}
{"type":"set_clip_loop","track":3,"clip":3,"start":0,"length":32,"enabled":true}
